<svg width="20" height="32" viewBox="0 0 20 32" fill="none" xmlns="http://www.w3.org/2000/svg">
<g clip-path="url(#clip0_103_8)">
<path d="M19.1295 18.3709C19.1288 18.3707 9.49074 15.9733 9.49074 15.9733C6.618 15.2587 4.8159 12.1194 5.46581 8.96139C6.11611 5.80341 8.97205 3.82292 11.8448 4.53731C14.7177 5.25197 16.5196 8.39123 15.8697 11.549C15.544 13.13 14.6654 14.4148 13.5086 15.2152C13.5084 15.2152 13.5056 15.2183 13.5046 15.2183C13.4705 15.2452 13.4485 15.2888 13.4485 15.338C13.4485 15.4069 13.4918 15.4648 13.5502 15.4802C13.5504 15.4804 17.8378 16.5461 17.8385 16.5461C17.9406 16.5716 18.0465 16.5283 18.1092 16.4373C18.1095 16.4364 18.1094 16.4371 18.1094 16.4371C19.2905 14.7191 20 12.5754 20 10.2568C20 4.79651 16.1191 0.334207 11.2239 0.0172746C11.1803 0.014129 10.915 0.00315216 10.8254 0.00157937C8.65798 -0.035853 6.46046 0.647249 4.54951 2.11832C-0.276355 5.83263 -1.44886 13.1436 1.92983 18.4481L10.5048 31.9097C10.5414 31.9646 10.6004 32.0001 10.6665 32.0001C10.7333 32.0001 10.7924 31.9639 10.8289 31.9087C10.8289 31.9087 19.2493 18.7088 19.25 18.7077C19.2715 18.6727 19.2843 18.6303 19.2843 18.5848C19.2843 18.4804 19.2182 18.393 19.1295 18.3707" fill="#FABC26"/>
</g>
<defs>
<clipPath id="clip0_103_8">
<rect width="20" height="32" fill="white"/>
</clipPath>
</defs>
</svg>
